<svg version="1.1" viewBox="0.0 0.0 960.0 720.0" fill="none" stroke="none" stroke-linecap="square" stroke-miterlimit="10" xmlns:xlink="http://www.w3.org/1999/xlink" xmlns="http://www.w3.org/2000/svg"><clipPath id="p.0"><path d="m0 0l960.0 0l0 720.0l-960.0 0l0 -720.0z" clip-rule="nonzero"/></clipPath><g clip-path="url(#p.0)"><path fill="#000000" fill-opacity="0.0" d="m0 0l960.0 0l0 720.0l-960.0 0z" fill-rule="evenodd"/><path fill="#6aa84f" d="m422.73227 301.22308l32.724426 -65.44881l32.724396 65.44881z" fill-rule="evenodd"/><path stroke="#6aa84f" stroke-width="2.0" stroke-linejoin="round" stroke-linecap="butt" d="m422.73227 301.22308l32.724426 -65.44881l32.724396 65.44881z" fill-rule="evenodd"/><path fill="#6aa84f" d="m471.8189 400.0656l32.724396 -65.44882l32.724396 65.44882z" fill-rule="evenodd"/><path stroke="#6aa84f" stroke-width="1.0" stroke-linejoin="round" stroke-linecap="butt" d="m471.8189 400.0656l32.724396 -65.44882l32.724396 65.44882z" fill-rule="evenodd"/><path fill="#6aa84f" d="m422.73227 321.32022l32.724426 65.44882l32.724396 -65.44882z" fill-rule="evenodd"/><path stroke="#6aa84f" stroke-width="1.0" stroke-linejoin="round" stroke-linecap="butt" d="m422.73227 321.32022l32.724426 65.44882l32.724396 -65.44882z" fill-rule="evenodd"/><path fill="#6aa84f" d="m471.8189 418.7743l32.724396 65.44879l32.724396 -65.44879z" fill-rule="evenodd"/><path stroke="#6aa84f" stroke-width="1.0" stroke-linejoin="round" stroke-linecap="butt" d="m471.8189 418.7743l32.724396 65.44879l32.724396 -65.44879z" fill-rule="evenodd"/><path fill="#000000" fill-opacity="0.0" d="m479.75067 219.74278l0 0c0 -8.853958 7.2127686 -16.031494 16.11023 -16.031494l0 0c4.272705 0 8.370392 1.6890259 11.391663 4.695511c3.0212402 3.006485 4.718567 7.0841675 4.718567 11.335983l0 0c0 8.853943 -7.212799 16.031494 -16.11023 16.031494l0 0c-8.897461 0 -16.11023 -7.1775513 -16.11023 -16.031494z" fill-rule="evenodd"/><path stroke="#6aa84f" stroke-width="16.0" stroke-linejoin="round" stroke-linecap="butt" d="m479.75067 219.74278l0 0c0 -8.853958 7.2127686 -16.031494 16.11023 -16.031494l0 0c4.272705 0 8.370392 1.6890259 11.391663 4.695511c3.0212402 3.006485 4.718567 7.0841675 4.718567 11.335983l0 0c0 8.853943 -7.212799 16.031494 -16.11023 16.031494l0 0c-8.897461 0 -16.11023 -7.1775513 -16.11023 -16.031494z" fill-rule="evenodd"/><path fill="#6aa84f" d="m471.8189 400.0656l32.724396 -65.44882l32.724396 65.44882z" fill-rule="evenodd"/><path stroke="#6aa84f" stroke-width="2.0" stroke-linejoin="round" stroke-linecap="butt" d="m471.8189 400.0656l32.724396 -65.44882l32.724396 65.44882z" fill-rule="evenodd"/><path fill="#6aa84f" d="m422.73227 321.32022l32.724426 65.44882l32.724396 -65.44882z" fill-rule="evenodd"/><path stroke="#6aa84f" stroke-width="2.0" stroke-linejoin="round" stroke-linecap="butt" d="m422.73227 321.32022l32.724426 65.44882l32.724396 -65.44882z" fill-rule="evenodd"/><path fill="#6aa84f" d="m471.8189 418.7743l32.724396 65.44879l32.724396 -65.44879z" fill-rule="evenodd"/><path stroke="#6aa84f" stroke-width="2.0" stroke-linejoin="round" stroke-linecap="butt" d="m471.8189 418.7743l32.724396 65.44879l32.724396 -65.44879z" fill-rule="evenodd"/><path fill="#000000" fill-opacity="0.0" d="m447.53018 500.2546l0 0c0 -8.853973 7.212799 -16.031525 16.11023 -16.031525l0 0c4.272705 0 8.370422 1.6890564 11.391663 4.695526c3.0212708 3.0065002 4.7185974 7.0841675 4.7185974 11.335999l0 0c0 8.853943 -7.212799 16.031464 -16.11026 16.031464l0 0c-8.89743 0 -16.11023 -7.1775208 -16.11023 -16.031464z" fill-rule="evenodd"/><path stroke="#6aa84f" stroke-width="16.0" stroke-linejoin="round" stroke-linecap="butt" d="m447.53018 500.2546l0 0c0 -8.853973 7.212799 -16.031525 16.11023 -16.031525l0 0c4.272705 0 8.370422 1.6890564 11.391663 4.695526c3.0212708 3.0065002 4.7185974 7.0841675 4.7185974 11.335999l0 0c0 8.853943 -7.212799 16.031464 -16.11026 16.031464l0 0c-8.89743 0 -16.11023 -7.1775208 -16.11023 -16.031464z" fill-rule="evenodd"/></g></svg>